# xmcd CD Database Entry
#
# Track frame offsets:
# 150
# 23347
# 41179
# 60191
# 79816
# 97677
# 117651
# 133235
# 150072
# 168596
# 186930
# 207911
#
# Disc length: 3009 seconds
#
# Revision: 0
# Processed by: cddbd v1.4b41PL1 Copyright (c) Steve Scherf et al.
# Submitted via: tcd 2.0b
#
DISCID=910bbf0c
DTITLE=Alain Bashung - Chatterton
DYEAR=1900
DGENRE=
TTITLE0=A perte de vue
TTITLE1=Que n'ai-je
TTITLE2=Ma petite entreprise
TTITLE3=Elvire
TTITLE4=Un âne plane
TTITLE5=Après d'âpres hostilités
TTITLE6=J'avais un pense-bête
TTITLE7=J'passe pour une caravane
TTITLE8=Danse d'ici
TTITLE9=A ostende
TTITLE10=L'apiculteur
TTITLE11=J'ai longtemps contemplé
EXTD=
EXTT0=
EXTT1=
EXTT2=
EXTT3=
EXTT4=
EXTT5=
EXTT6=
EXTT7=
EXTT8=
EXTT9=
EXTT10=
EXTT11=
PLAYORDER=
